<svg id="svg" version="1.1" width="400" height="320" viewBox="0 0 400 320" xmlns="http://www.w3.org/2000/svg" xmlns:xlink="http://www.w3.org/1999/xlink" ><g id="svgg"><path id="path0" d="M0.000 160.293 C 0.000 277.911,0.054 292.800,0.480 292.800 C 1.141 292.800,1.060 28.140,0.400 27.920 C 0.080 27.813,0.000 54.430,0.000 160.293 " stroke="none" fill="#6a0f1a" fill-rule="evenodd"></path><path id="path1" d="M0.881 160.320 L 0.962 292.800 200.481 292.800 L 400.000 292.800 400.000 160.320 L 400.000 27.840 200.400 27.840 L 0.800 27.840 0.881 160.320 M79.373 59.560 C 80.246 62.228,80.960 64.606,80.960 64.845 C 80.960 65.197,82.152 65.280,87.181 65.280 C 94.705 65.280,94.594 65.204,91.141 68.001 C 90.845 68.241,90.197 68.697,89.701 69.015 C 89.206 69.332,88.641 69.738,88.446 69.916 C 88.252 70.094,87.128 70.929,85.948 71.771 C 83.698 73.378,83.673 73.439,84.463 75.360 C 84.608 75.712,85.191 77.440,85.757 79.200 C 87.971 86.072,87.971 86.054,85.720 84.399 C 81.636 81.398,77.314 78.400,77.071 78.400 C 76.791 78.400,72.405 81.497,69.038 84.072 C 67.466 85.274,67.165 85.401,66.987 84.937 C 66.817 84.493,68.454 78.571,69.457 76.000 C 70.566 73.160,70.645 73.263,63.680 68.468 C 62.497 67.654,62.359 67.550,61.171 66.571 C 59.806 65.447,60.543 65.280,66.848 65.280 C 73.713 65.280,72.980 65.621,74.063 61.920 C 74.371 60.864,74.738 59.712,74.878 59.360 C 75.594 57.557,76.160 55.761,76.160 55.292 C 76.160 55.003,76.399 54.527,76.691 54.234 C 77.395 53.531,77.412 53.566,79.373 59.560 M76.922 63.074 C 76.727 63.319,76.313 64.384,76.001 65.440 C 75.212 68.111,74.702 68.480,71.805 68.480 C 68.964 68.480,68.941 68.580,71.390 70.326 C 73.772 72.025,73.835 72.199,73.000 74.742 C 71.863 78.207,71.950 78.306,74.455 76.400 C 75.438 75.652,76.416 74.912,76.629 74.755 C 76.885 74.565,77.810 75.028,79.382 76.132 C 82.068 78.018,82.235 77.925,81.307 75.051 C 80.360 72.120,80.390 72.021,82.720 70.400 C 85.330 68.585,85.326 68.572,82.196 68.430 C 79.168 68.292,78.996 68.142,77.921 64.698 C 77.414 63.073,77.199 62.724,76.922 63.074 M81.048 91.403 C 85.695 93.742,90.397 97.608,93.059 101.280 C 93.697 102.160,94.296 102.952,94.389 103.040 C 94.483 103.128,94.765 103.560,95.015 104.000 C 100.623 113.867,101.627 123.146,98.182 133.265 L 97.207 136.130 100.043 138.827 C 101.603 140.311,104.189 142.732,105.788 144.207 C 107.686 145.958,108.804 147.249,109.007 147.925 C 109.803 150.572,107.793 153.280,105.031 153.280 C 103.264 153.280,103.585 153.533,96.592 146.653 L 92.224 142.355 90.672 143.464 C 84.419 147.929,76.053 149.000,68.777 146.267 C 66.990 145.595,62.931 143.294,62.137 142.502 C 61.486 141.852,61.191 141.982,60.362 143.280 C 55.904 150.267,50.093 154.224,46.797 152.520 C 42.581 150.340,44.838 145.209,52.542 139.458 C 55.713 137.091,61.153 134.219,63.520 133.663 C 63.872 133.580,64.376 133.424,64.640 133.315 C 64.922 133.199,65.552 133.487,66.168 134.015 C 69.880 137.196,76.627 138.571,80.805 137.000 C 85.152 135.364,85.106 135.570,81.874 132.213 C 77.095 127.248,67.386 117.083,66.357 115.967 C 64.991 114.487,64.858 114.529,61.760 117.427 C 58.847 120.152,58.266 120.406,57.511 119.280 C 57.245 118.884,56.602 118.128,56.081 117.600 C 53.510 114.994,52.478 113.562,52.782 113.020 C 53.163 112.339,53.862 111.548,57.967 107.141 C 63.438 101.268,63.215 101.436,65.275 101.642 C 66.246 101.738,69.116 101.913,71.654 102.029 C 77.369 102.290,77.346 102.243,73.572 106.091 L 70.603 109.119 75.765 114.319 C 78.605 117.180,83.083 121.721,85.718 124.412 C 88.352 127.102,90.573 129.190,90.652 129.052 C 90.732 128.913,90.955 128.080,91.148 127.200 C 93.913 114.588,90.623 103.254,81.619 94.371 C 77.204 90.016,77.088 89.411,81.048 91.403 " stroke="none" fill="#e61938" fill-rule="evenodd"></path><path id="path2" d="M99.920 27.760 C 154.964 27.805,245.036 27.805,300.080 27.760 C 355.124 27.715,310.088 27.679,200.000 27.679 C 89.912 27.679,44.876 27.715,99.920 27.760 M76.691 54.234 C 76.399 54.527,76.169 55.079,76.180 55.463 L 76.201 56.160 76.478 55.473 C 76.919 54.380,77.402 54.294,77.633 55.267 C 77.750 55.758,78.537 58.248,79.383 60.800 L 80.920 65.440 87.039 65.600 C 94.271 65.789,94.199 65.429,87.896 69.920 C 85.673 71.504,83.783 72.982,83.696 73.204 C 83.526 73.636,85.129 78.818,85.361 78.586 C 85.491 78.456,85.017 76.766,84.456 75.360 C 83.681 73.420,83.699 73.378,85.948 71.771 C 87.128 70.929,88.252 70.094,88.446 69.916 C 88.641 69.738,89.206 69.332,89.701 69.015 C 90.197 68.697,90.845 68.241,91.141 68.001 C 94.594 65.204,94.705 65.280,87.181 65.280 C 82.152 65.280,80.960 65.197,80.960 64.845 C 80.960 64.324,77.908 54.927,77.505 54.207 C 77.250 53.752,77.171 53.754,76.691 54.234 M75.530 57.499 C 75.324 58.170,75.036 59.008,74.890 59.360 C 74.744 59.712,74.371 60.864,74.063 61.920 C 72.980 65.621,73.713 65.280,66.848 65.280 C 60.543 65.280,59.806 65.447,61.171 66.571 C 62.359 67.550,62.497 67.654,63.680 68.468 C 70.645 73.263,70.566 73.160,69.457 76.000 C 68.454 78.571,66.817 84.493,66.987 84.937 C 67.165 85.401,67.466 85.274,69.038 84.072 C 72.405 81.497,76.791 78.400,77.071 78.400 C 77.314 78.400,81.636 81.398,85.720 84.399 C 86.927 85.287,87.951 85.541,87.568 84.858 C 87.501 84.738,87.055 83.368,86.576 81.814 C 86.097 80.260,85.632 79.061,85.543 79.150 C 85.454 79.239,85.673 80.151,86.029 81.176 C 86.750 83.249,86.952 84.240,86.703 84.480 C 86.559 84.619,82.232 81.592,78.815 78.960 C 77.213 77.726,75.874 78.116,73.335 80.556 C 73.101 80.780,72.597 81.131,72.215 81.335 C 71.833 81.540,70.603 82.409,69.482 83.268 C 68.360 84.127,67.374 84.760,67.289 84.675 C 67.136 84.523,68.917 78.601,70.137 75.204 L 70.768 73.448 69.544 72.385 C 68.082 71.116,68.418 71.367,64.580 68.668 C 60.119 65.529,60.062 65.600,67.011 65.600 C 71.325 65.600,72.966 65.494,73.199 65.200 C 73.612 64.680,76.229 56.603,76.045 56.418 C 75.967 56.341,75.735 56.827,75.530 57.499 M76.502 62.680 C 76.314 63.031,76.169 63.579,76.180 63.899 C 76.197 64.388,76.245 64.371,76.478 63.793 C 77.004 62.490,77.365 62.736,77.956 64.799 C 78.886 68.046,79.175 68.292,82.219 68.431 C 85.324 68.572,85.328 68.586,82.720 70.400 C 80.390 72.021,80.360 72.120,81.307 75.051 C 82.235 77.925,82.068 78.018,79.382 76.132 C 77.810 75.028,76.885 74.565,76.629 74.755 C 76.416 74.912,75.438 75.652,74.455 76.400 C 71.950 78.306,71.863 78.207,73.000 74.742 C 73.835 72.199,73.772 72.025,71.390 70.326 C 68.941 68.580,68.964 68.480,71.805 68.480 C 73.608 68.480,74.315 68.347,74.785 67.920 C 75.426 67.338,76.344 65.037,76.052 64.745 C 75.960 64.653,75.701 65.204,75.478 65.969 C 74.945 67.792,74.868 67.829,71.619 67.835 C 67.722 67.842,67.675 68.240,71.280 70.718 C 73.579 72.298,73.530 72.114,72.480 75.200 C 71.186 79.004,71.259 79.064,74.409 76.789 C 76.642 75.176,77.467 74.988,78.507 75.857 C 81.277 78.171,82.558 78.848,82.562 78.000 C 82.563 77.530,81.647 74.646,81.241 73.844 C 80.688 72.751,80.988 72.140,82.751 70.778 C 83.735 70.019,84.743 69.319,84.990 69.224 C 86.664 68.582,85.382 67.840,82.599 67.840 C 79.264 67.840,79.279 67.851,78.292 64.606 C 77.547 62.156,77.062 61.633,76.502 62.680 M78.304 90.771 C 78.416 91.062,79.907 92.682,81.619 94.371 C 90.623 103.254,93.913 114.588,91.148 127.200 C 90.955 128.080,90.732 128.913,90.652 129.052 C 90.573 129.190,88.352 127.102,85.718 124.412 C 83.083 121.721,78.605 117.180,75.765 114.319 L 70.603 109.119 73.572 106.091 C 77.346 102.243,77.369 102.290,71.654 102.029 C 69.116 101.913,66.246 101.738,65.275 101.642 C 63.215 101.436,63.438 101.268,57.967 107.141 C 53.862 111.548,53.163 112.339,52.782 113.020 C 52.478 113.562,53.510 114.994,56.081 117.600 C 56.602 118.128,57.245 118.884,57.511 119.280 C 58.266 120.406,58.847 120.152,61.760 117.427 C 64.858 114.529,64.991 114.487,66.357 115.967 C 67.386 117.083,77.095 127.248,81.874 132.213 C 85.106 135.570,85.152 135.364,80.805 137.000 C 76.627 138.571,69.880 137.196,66.168 134.015 C 65.552 133.487,64.922 133.199,64.640 133.315 C 64.376 133.424,63.872 133.580,63.520 133.663 C 62.662 133.865,62.024 134.134,59.200 135.491 C 50.061 139.880,42.666 147.731,44.986 150.579 C 45.485 151.191,45.489 151.191,45.265 150.560 C 44.473 148.330,45.041 147.071,48.372 143.680 C 52.137 139.846,55.466 137.489,59.840 135.560 C 60.984 135.055,62.154 134.526,62.441 134.383 C 64.046 133.584,65.241 133.675,66.531 134.697 C 71.152 138.357,78.158 139.002,83.600 136.270 C 84.260 135.938,84.800 135.463,84.800 135.215 C 84.800 134.820,79.822 129.330,76.508 126.070 C 75.877 125.449,73.074 122.545,70.279 119.616 C 64.895 113.974,64.928 113.994,63.382 115.489 C 61.629 117.186,58.762 119.680,58.566 119.680 C 58.454 119.680,57.579 118.792,56.621 117.706 C 54.629 115.448,54.506 115.309,53.494 114.178 L 52.749 113.344 56.054 109.732 C 57.872 107.745,60.296 105.152,61.440 103.970 L 63.520 101.819 67.040 102.089 C 68.976 102.238,71.820 102.369,73.360 102.380 C 76.759 102.404,76.762 102.206,73.295 105.914 C 71.107 108.254,70.521 109.067,70.735 109.468 C 71.652 111.181,90.453 129.635,90.824 129.187 C 92.407 127.280,92.882 115.886,91.580 111.040 C 90.451 106.837,87.771 100.585,86.782 99.850 C 86.657 99.756,86.136 99.032,85.625 98.240 C 85.114 97.448,83.403 95.536,81.822 93.992 C 78.502 90.748,78.441 90.395,81.483 92.028 C 96.554 100.118,103.082 116.002,98.042 132.320 C 96.702 136.657,96.685 136.321,98.320 137.778 C 99.068 138.445,101.192 140.394,103.040 142.109 C 104.888 143.823,106.777 145.521,107.237 145.882 C 110.189 148.197,108.696 152.960,105.018 152.960 C 103.479 152.960,103.519 152.992,95.822 145.407 C 92.346 141.981,92.165 141.886,91.008 142.880 C 89.191 144.441,84.409 146.435,80.696 147.179 C 75.263 148.267,67.672 146.364,63.040 142.752 C 62.424 142.272,61.753 141.780,61.548 141.658 C 61.317 141.521,60.515 142.379,59.434 143.922 C 54.406 151.098,49.135 154.315,46.426 151.863 C 46.057 151.530,45.681 151.332,45.590 151.423 C 45.325 151.688,46.294 152.359,47.582 152.802 C 50.594 153.837,55.830 150.034,60.039 143.755 C 61.232 141.975,61.468 141.834,62.137 142.502 C 62.931 143.294,66.990 145.595,68.777 146.267 C 76.053 149.000,84.419 147.929,90.672 143.464 L 92.224 142.355 96.592 146.653 C 103.585 153.533,103.264 153.280,105.031 153.280 C 107.793 153.280,109.803 150.572,109.007 147.925 C 108.804 147.249,107.686 145.958,105.788 144.207 C 104.189 142.732,101.603 140.311,100.043 138.827 L 97.207 136.130 98.182 133.265 C 101.627 123.146,100.623 113.867,95.015 104.000 C 94.765 103.560,94.483 103.128,94.389 103.040 C 94.296 102.952,93.697 102.160,93.059 101.280 C 90.397 97.608,85.695 93.742,81.048 91.403 C 78.467 90.104,78.007 89.999,78.304 90.771 M99.920 293.040 C 154.964 293.085,245.036 293.085,300.080 293.040 C 355.124 292.995,310.088 292.959,200.000 292.959 C 89.912 292.959,44.876 292.995,99.920 293.040 " stroke="none" fill="#c9606e" fill-rule="evenodd"></path><path id="path3" d="M0.000 27.040 C 0.000 27.466,22.436 27.520,200.000 27.520 C 377.564 27.520,400.000 27.466,400.000 27.040 C 400.000 26.614,377.564 26.560,200.000 26.560 C 22.436 26.560,0.000 26.614,0.000 27.040 M99.920 293.360 C 154.964 293.405,245.036 293.405,300.080 293.360 C 355.124 293.315,310.088 293.279,200.000 293.279 C 89.912 293.279,44.876 293.315,99.920 293.360 " stroke="none" fill="#bda2a8" fill-rule="evenodd"></path><path id="path4" d="M76.916 54.765 C 76.728 55.004,75.889 57.360,75.050 60.000 C 73.079 66.200,73.941 65.600,67.011 65.600 C 60.062 65.600,60.119 65.529,64.580 68.668 C 68.418 71.367,68.082 71.116,69.544 72.385 L 70.768 73.448 70.137 75.204 C 68.917 78.601,67.136 84.523,67.289 84.675 C 67.374 84.760,68.360 84.127,69.482 83.268 C 70.603 82.409,71.833 81.540,72.215 81.335 C 72.597 81.131,73.101 80.780,73.335 80.556 C 75.874 78.116,77.213 77.726,78.815 78.960 C 81.881 81.321,86.556 84.630,86.709 84.545 C 87.017 84.376,86.689 83.110,85.100 78.329 C 83.219 72.672,82.966 73.433,87.896 69.920 C 94.200 65.429,94.271 65.789,87.037 65.600 L 80.916 65.440 79.307 60.480 C 77.152 53.838,77.323 54.245,76.916 54.765 M78.292 64.606 C 79.279 67.851,79.264 67.840,82.599 67.840 C 85.382 67.840,86.664 68.582,84.990 69.224 C 84.743 69.319,83.735 70.019,82.751 70.778 C 80.988 72.140,80.688 72.751,81.241 73.844 C 81.647 74.646,82.563 77.530,82.562 78.000 C 82.558 78.848,81.277 78.171,78.507 75.857 C 77.467 74.988,76.642 75.176,74.409 76.789 C 71.259 79.064,71.186 79.004,72.480 75.200 C 73.530 72.114,73.579 72.298,71.280 70.718 C 67.675 68.240,67.722 67.842,71.619 67.835 C 74.942 67.829,74.888 67.861,75.635 65.440 C 76.927 61.256,77.243 61.156,78.292 64.606 M79.040 91.077 C 79.040 91.185,80.313 92.517,81.868 94.037 C 83.423 95.556,85.114 97.448,85.625 98.240 C 86.136 99.032,86.657 99.756,86.782 99.850 C 87.771 100.585,90.451 106.837,91.580 111.040 C 92.882 115.886,92.407 127.280,90.824 129.187 C 90.453 129.635,71.652 111.181,70.735 109.468 C 70.521 109.067,71.107 108.254,73.295 105.914 C 76.762 102.206,76.759 102.404,73.360 102.380 C 71.820 102.369,68.976 102.238,67.040 102.089 L 63.520 101.819 61.440 103.970 C 60.296 105.152,57.872 107.745,56.054 109.732 L 52.749 113.344 53.494 114.178 C 54.506 115.309,54.629 115.448,56.621 117.706 C 57.579 118.792,58.454 119.680,58.566 119.680 C 58.762 119.680,61.629 117.186,63.382 115.489 C 64.928 113.994,64.895 113.974,70.279 119.616 C 73.074 122.545,75.877 125.449,76.508 126.070 C 79.822 129.330,84.800 134.820,84.800 135.215 C 84.800 135.463,84.260 135.938,83.600 136.270 C 78.158 139.002,71.152 138.357,66.531 134.697 C 65.241 133.675,64.046 133.584,62.441 134.383 C 62.154 134.526,60.984 135.055,59.840 135.560 C 51.736 139.134,44.002 146.712,45.098 150.003 C 46.861 155.295,53.413 152.515,59.434 143.922 C 60.515 142.379,61.317 141.521,61.548 141.658 C 61.753 141.780,62.424 142.272,63.040 142.752 C 67.672 146.364,75.263 148.267,80.696 147.179 C 84.409 146.435,89.191 144.441,91.008 142.880 C 92.165 141.886,92.346 141.981,95.822 145.407 C 103.519 152.992,103.479 152.960,105.018 152.960 C 108.696 152.960,110.189 148.197,107.237 145.882 C 106.777 145.521,104.888 143.823,103.040 142.109 C 101.192 140.394,99.068 138.445,98.320 137.778 C 96.685 136.321,96.702 136.657,98.042 132.320 C 103.077 116.017,96.551 100.116,81.512 92.044 C 79.261 90.835,79.040 90.749,79.040 91.077 M0.000 293.760 C 0.000 293.973,66.880 294.080,200.000 294.080 C 333.120 294.080,400.000 293.973,400.000 293.760 C 400.000 293.547,333.120 293.440,200.000 293.440 C 66.880 293.440,0.000 293.547,0.000 293.760 " stroke="none" fill="#fdb930" fill-rule="evenodd"></path></g></svg>